<?xml version="1.0" standalone="no"?>
<!DOCTYPE svg PUBLIC "-//W3C//DTD SVG 20010904//EN"
 "http://www.w3.org/TR/2001/REC-SVG-20010904/DTD/svg10.dtd">
<svg version="1.0" xmlns="http://www.w3.org/2000/svg"
 width="1090.000000pt" height="1090.000000pt" viewBox="0 0 1090.000000 1090.000000"
 preserveAspectRatio="xMidYMid meet">
<metadata>
Created by potrace 1.16, written by Peter Selinger 2001-2019
</metadata>
<g transform="translate(0.000000,1090.000000) scale(0.100000,-0.100000)"
fill="#FF0000" stroke="none">
<path d="M4778 9646 c-61 -17 -110 -55 -151 -119 -53 -81 -152 -200 -201 -241
-121 -99 -242 -107 -459 -31 -39 13 -73 23 -75 21 -2 -3 -12 4 -22 14 -44 44
-159 52 -236 16 -72 -33 -106 -81 -149 -205 -77 -225 -139 -318 -248 -370 -84
-41 -182 -53 -317 -39 -195 20 -248 12 -318 -47 -59 -50 -74 -94 -83 -247 -10
-155 -40 -306 -71 -356 -58 -95 -188 -158 -418 -203 -116 -23 -162 -43 -201
-86 -73 -78 -80 -138 -38 -308 44 -178 46 -314 8 -395 -30 -64 -91 -128 -169
-178 -30 -19 -74 -48 -97 -64 -23 -15 -46 -28 -53 -28 -14 0 -86 -43 -122 -73
-28 -23 -67 -99 -68 -129 0 -17 23 -18 339 -18 l338 0 28 78 c84 232 208 482
348 703 897 1413 2622 2034 4217 1517 647 -209 1251 -622 1681 -1148 266 -325
487 -710 614 -1072 l28 -78 339 0 340 0 -7 33 c-18 79 -65 129 -179 188 -353
182 -405 299 -309 697 34 143 22 204 -55 284 -39 41 -87 60 -192 78 -98 17
-206 48 -269 77 -55 26 -141 97 -141 117 0 5 -7 17 -15 26 -23 25 -53 188 -63
340 -10 147 -24 190 -79 242 -49 47 -98 61 -193 57 -47 -2 -150 -3 -230 -4
-139 0 -147 1 -208 29 -113 52 -178 149 -258 381 -44 127 -78 171 -156 205
-63 27 -141 24 -208 -7 -102 -47 -195 -77 -292 -94 -168 -28 -308 59 -472 292
-52 75 -78 102 -114 122 -111 60 -191 44 -329 -65 -221 -175 -344 -211 -504
-149 -61 23 -192 107 -267 171 -80 66 -162 89 -244 66z"/>
<path d="M5629 8526 c-121 -43 -192 -133 -224 -282 -22 -102 -4 -250 37 -303
10 -13 18 -29 18 -36 0 -7 17 -28 37 -45 122 -108 326 -117 436 -20 37 33 106
137 95 144 -11 8 -127 56 -136 56 -5 0 -14 -12 -20 -27 -14 -43 -64 -90 -108
-103 -84 -25 -180 31 -204 121 -8 26 -10 79 -7 131 9 167 79 253 198 245 70
-4 114 -34 141 -94 12 -27 25 -43 32 -40 7 3 38 8 69 12 67 9 71 20 33 101
-46 98 -149 154 -284 154 -42 -1 -93 -7 -113 -14z"/>
<path d="M5071 8523 c-21 -4 -23 -8 -17 -46 3 -23 19 -179 36 -347 17 -168 33
-315 36 -328 5 -23 7 -23 72 -17 37 4 70 10 74 14 4 4 -62 687 -71 729 -1 3
-104 0 -130 -5z"/>
<path d="M4575 8422 c-126 -36 -231 -67 -233 -68 -2 -1 17 -71 42 -156 24 -84
70 -241 101 -348 31 -107 60 -198 64 -203 9 -9 141 24 141 36 0 5 -18 72 -41
149 -22 77 -37 144 -32 148 4 4 69 25 143 46 74 21 137 39 139 41 4 3 -25 113
-33 120 -2 2 -68 -15 -145 -38 -78 -22 -144 -39 -147 -36 -11 11 -52 157 -46
160 4 2 82 26 173 52 l166 47 -15 59 c-11 40 -21 59 -32 58 -8 0 -118 -30
-245 -67z"/>
<path d="M6306 8421 c-8 -14 -217 -703 -214 -705 13 -12 133 -44 139 -39 6 7
206 642 216 688 4 18 -5 23 -66 41 -40 12 -73 19 -75 15z"/>
<path d="M3875 8126 c-115 -68 -211 -128 -213 -134 -2 -8 333 -595 360 -629 7
-9 26 -2 71 24 34 20 63 37 65 38 1 1 -32 60 -73 131 -41 71 -75 133 -75 139
0 5 58 43 128 84 70 41 128 75 130 76 6 5 -59 105 -68 105 -4 0 -61 -31 -126
-70 -66 -38 -124 -70 -131 -70 -13 0 -94 131 -87 142 2 3 72 45 154 93 l150
87 -29 51 c-16 29 -33 53 -38 54 -4 1 -102 -54 -218 -121z"/>
<path d="M6679 8028 c-112 -95 -247 -208 -299 -252 -52 -44 -95 -84 -95 -89 0
-8 112 -76 127 -77 4 0 35 25 69 55 34 30 66 55 72 55 13 0 228 -118 243 -133
8 -8 9 -29 4 -67 -17 -115 -18 -114 56 -155 37 -20 69 -34 72 -31 6 7 91 707
92 758 0 34 -3 38 -65 72 -36 20 -67 36 -69 36 -1 0 -95 -77 -207 -172z m169
-163 c-10 -71 -21 -132 -24 -135 -8 -7 -159 76 -159 87 0 9 195 186 200 181 1
-2 -6 -61 -17 -133z"/>
<path d="M7202 7555 l-253 -263 143 -139 c79 -77 165 -159 191 -183 l48 -43
45 44 46 44 -137 130 -137 131 173 179 c95 99 191 199 213 223 l41 43 -55 49
c-30 27 -57 49 -60 49 -3 -1 -119 -119 -258 -264z"/>
<path d="M3302 7679 c-75 -29 -173 -124 -213 -204 -29 -59 -31 -70 -28 -147 3
-67 10 -95 33 -142 40 -82 139 -179 224 -219 59 -28 77 -32 152 -32 105 0 156
23 242 107 102 98 139 222 103 344 -32 109 -133 223 -255 285 -65 33 -186 37
-258 8z m156 -134 c64 -19 166 -111 201 -180 29 -58 27 -149 -5 -192 -93 -124
-233 -122 -358 3 -52 52 -96 132 -96 174 0 99 95 204 191 209 8 1 39 -6 67
-14z"/>
<path d="M5395 7248 c-36 -93 -40 -98 -84 -98 -20 0 -59 -3 -88 -6 l-51 -7 66
-55 c37 -31 69 -57 71 -59 2 -1 -6 -41 -19 -88 -12 -48 -20 -88 -18 -90 2 -2
37 18 78 45 66 43 77 47 95 36 11 -7 46 -30 78 -50 35 -22 57 -32 57 -24 0 8
-9 47 -21 88 l-20 75 33 30 c18 16 48 43 67 58 18 15 31 30 29 33 -3 3 -43 7
-90 11 l-84 6 -29 76 c-15 42 -31 80 -35 84 -4 4 -19 -25 -35 -65z"/>
<path d="M4779 7088 l-25 -63 -67 -3 c-37 -2 -67 -7 -67 -12 0 -6 3 -10 8 -10
4 -1 26 -18 50 -39 l43 -38 -16 -62 c-9 -35 -14 -65 -12 -68 3 -2 30 12 60 32
l55 37 56 -38 c31 -20 58 -35 61 -33 2 3 -2 27 -10 54 -22 71 -20 80 35 122
27 21 49 41 50 46 0 4 -29 7 -64 7 -72 0 -76 3 -102 78 -10 28 -21 52 -25 52
-3 0 -17 -28 -30 -62z"/>
<path d="M6021 7105 c-34 -81 -32 -80 -106 -85 l-69 -5 54 -47 54 -46 -15 -66
c-9 -36 -13 -66 -10 -66 3 0 30 16 59 36 l54 36 55 -37 c30 -20 57 -34 60 -32
2 3 -3 33 -12 67 l-16 63 28 24 c15 13 38 31 51 39 36 26 26 34 -43 34 l-66 0
-20 48 c-39 95 -35 92 -58 37z"/>
<path d="M4361 6779 c-13 -44 -17 -46 -76 -53 -22 -3 -42 -5 -44 -5 -2 -1 13
-16 34 -34 39 -34 39 -34 28 -80 -5 -26 -7 -47 -4 -47 3 0 24 11 45 24 l40 24
38 -26 c21 -14 40 -23 43 -21 2 3 -1 24 -7 49 -11 43 -11 44 27 76 l39 32 -40
7 c-21 3 -45 7 -53 8 -8 1 -21 21 -30 45 -8 23 -18 42 -21 42 -4 0 -12 -18
-19 -41z"/>
<path d="M6449 6778 c-13 -36 -21 -43 -45 -46 -16 -1 -40 -5 -53 -8 -23 -5
-22 -6 15 -38 38 -33 38 -33 27 -79 -5 -26 -8 -47 -6 -47 2 0 22 10 44 23 l39
22 41 -23 c22 -13 42 -22 44 -20 2 2 -2 23 -8 47 -12 43 -12 44 27 77 l38 33
-39 6 c-21 3 -44 7 -52 8 -8 1 -21 21 -30 45 -8 23 -18 42 -21 42 -3 0 -13
-19 -21 -42z"/>
<path d="M200 6481 c0 -4 13 -26 28 -47 15 -21 80 -115 143 -209 103 -151 271
-398 495 -727 l74 -108 -132 -192 c-72 -106 -168 -247 -213 -313 -245 -358
-388 -571 -392 -582 -4 -11 967 -13 5221 -13 2874 0 5226 4 5226 8 0 5 -66
106 -147 225 -456 668 -583 858 -583 869 1 7 107 168 236 358 377 552 485 712
491 726 4 11 -865 14 -5221 14 -2874 0 -5226 -4 -5226 -9z m1438 -749 c59 -31
116 -93 149 -160 26 -53 28 -66 28 -182 0 -107 -4 -133 -23 -181 -30 -76 -90
-142 -160 -176 -52 -26 -67 -28 -167 -28 -92 0 -118 4 -157 22 -70 32 -131 94
-164 166 -27 58 -29 71 -29 182 1 151 22 213 99 291 77 76 133 95 271 91 91
-2 117 -7 153 -25z m2128 17 l44 -11 0 -50 c0 -57 9 -54 -100 -24 -68 20 -103
20 -166 1 -64 -19 -113 -60 -149 -126 -24 -45 -30 -69 -33 -139 -5 -98 6 -147
47 -211 59 -94 204 -130 317 -80 71 32 84 29 84 -20 0 -38 -2 -41 -47 -62 -40
-18 -66 -22 -163 -22 -143 0 -195 20 -270 102 -62 68 -90 149 -90 264 0 185
100 331 260 380 39 12 216 10 266 -2z m5460 0 l44 -11 0 -50 c0 -57 9 -54
-100 -24 -68 20 -103 20 -166 1 -64 -19 -113 -60 -149 -126 -24 -45 -30 -69
-33 -139 -5 -98 6 -147 47 -211 59 -94 204 -130 317 -80 71 32 84 29 84 -20 0
-38 -2 -41 -47 -62 -40 -18 -66 -22 -163 -22 -143 0 -195 20 -270 102 -62 68
-90 149 -90 264 0 185 100 331 260 380 39 12 216 10 266 -2z m-6876 -39 l0
-40 -140 0 -140 0 0 -125 0 -125 130 0 130 0 0 -40 0 -40 -130 0 -130 0 0
-165 0 -165 -60 0 -60 0 0 370 0 370 200 0 200 0 0 -40z m520 0 l0 -40 -140 0
-140 0 0 -125 0 -125 130 0 130 0 0 -40 0 -40 -130 0 -130 0 0 -165 0 -165
-60 0 -60 0 0 370 0 370 200 0 200 0 0 -40z m240 -330 l0 -370 -60 0 -60 0 0
370 0 370 60 0 60 0 0 -370z m950 0 l0 -370 -60 0 -60 0 0 370 0 370 60 0 60
0 0 -370z m514 303 c14 -38 77 -204 140 -370 l114 -303 -62 0 -62 0 -38 105
-39 106 -140 -3 -140 -3 -36 -102 -36 -103 -62 0 -62 0 23 63 c105 276 247
654 251 665 3 8 25 12 64 12 l59 0 26 -67z m466 -263 l0 -329 143 -3 142 -3 0
-35 0 -35 -202 -3 -203 -2 0 370 0 370 60 0 60 0 0 -330z m1000 290 l0 -40
-140 0 -140 0 0 -125 0 -125 130 0 130 0 0 -40 0 -40 -130 0 -130 0 0 -165 0
-165 -60 0 -60 0 0 370 0 370 200 0 200 0 0 -40z m240 -330 l0 -370 -60 0 -60
0 0 370 0 370 60 0 60 0 0 -370z m486 100 c93 -148 175 -269 182 -270 9 0 12
61 12 270 l0 271 58 -3 57 -3 0 -365 0 -365 -69 0 -70 0 -171 269 c-94 149
-177 272 -183 274 -9 3 -12 -66 -12 -273 l0 -276 -57 3 -58 3 -3 355 c-1 195
0 361 3 367 3 9 27 13 73 13 l69 0 169 -270z m828 203 c14 -38 77 -204 140
-370 l114 -303 -62 0 -62 0 -38 105 -39 106 -140 -3 -140 -3 -36 -102 -36
-103 -62 0 -62 0 23 63 c105 276 247 654 251 665 3 8 25 12 64 12 l59 0 26
-67z m662 -203 c93 -148 175 -269 182 -270 9 0 12 61 12 270 l0 271 58 -3 57
-3 0 -365 0 -365 -69 0 -70 0 -171 269 c-94 149 -177 272 -183 274 -9 3 -12
-66 -12 -273 l0 -276 -57 3 -58 3 -3 355 c-1 195 0 361 3 367 3 9 27 13 73 13
l69 0 169 -270z m1544 230 l0 -40 -140 0 -140 0 0 -120 0 -120 130 0 130 0 0
-40 0 -40 -130 0 -130 0 0 -130 0 -130 150 0 150 0 0 -40 0 -40 -210 0 -210 0
0 370 0 370 200 0 200 0 0 -40z"/>
<path d="M1399 5667 c-118 -44 -174 -150 -167 -311 3 -77 8 -99 33 -144 64
-118 196 -159 315 -97 41 21 87 82 106 138 23 70 16 237 -13 292 -25 47 -66
91 -106 112 -41 21 -125 26 -168 10z"/>
<path d="M4480 5589 c0 -3 -22 -67 -50 -143 -27 -76 -50 -140 -50 -142 0 -2
47 -4 105 -4 58 0 105 4 105 9 0 17 -91 266 -100 275 -6 6 -10 8 -10 5z"/>
<path d="M7500 5589 c0 -3 -22 -67 -50 -143 -27 -76 -50 -140 -50 -142 0 -2
47 -4 105 -4 58 0 105 4 105 9 0 17 -91 266 -100 275 -6 6 -10 8 -10 5z"/>
<path d="M1285 4198 c16 -54 49 -110 79 -132 17 -12 72 -44 121 -71 179 -95
264 -165 305 -249 50 -106 49 -215 -7 -446 -22 -93 -24 -111 -14 -157 23 -102
100 -171 216 -192 241 -46 334 -82 417 -164 44 -44 60 -68 71 -109 27 -95 36
-152 42 -274 4 -65 11 -135 16 -155 13 -52 63 -115 111 -141 41 -22 52 -23
288 -23 243 0 246 0 300 -26 105 -49 177 -156 254 -379 20 -57 48 -119 62
-137 35 -47 104 -83 167 -90 46 -5 66 0 143 32 147 61 258 89 354 89 78 1 90
-2 149 -34 74 -40 161 -130 254 -264 76 -110 132 -146 228 -146 77 0 104 12
224 104 55 42 138 95 184 119 82 41 88 42 180 42 89 0 101 -2 161 -33 36 -19
115 -71 175 -117 142 -107 166 -118 240 -118 86 0 164 45 213 123 39 62 145
191 191 232 82 74 130 92 241 92 81 0 109 -5 190 -33 52 -18 126 -46 164 -63
59 -26 79 -30 126 -25 122 11 180 67 235 226 57 166 100 248 165 313 97 96
194 115 500 95 l125 -9 55 34 c35 21 64 49 83 80 27 43 30 59 38 180 18 273
58 390 158 459 71 49 217 96 356 115 120 16 202 81 232 184 15 53 15 59 -6
150 -100 429 -59 524 313 726 117 64 149 95 171 169 l14 45 -343 0 -343 0 -28
-77 c-63 -178 -170 -407 -273 -583 -85 -145 -227 -352 -272 -396 -22 -21 -40
-43 -40 -47 0 -20 -141 -186 -254 -299 -492 -489 -1102 -828 -1767 -982 -557
-128 -1123 -125 -1684 9 -713 171 -1374 567 -1858 1115 -309 349 -525 702
-687 1123 l-53 137 -344 0 -344 0 6 -22z"/>
<path d="M4303 4173 c11 -46 11 -46 -27 -79 l-38 -33 52 -7 c50 -7 53 -8 72
-53 l20 -46 18 45 c17 43 20 46 70 55 l52 10 -38 31 -39 31 12 44 c6 24 10 45
8 47 -2 2 -21 -7 -43 -19 l-40 -24 -40 23 c-22 12 -42 22 -44 22 -3 0 0 -21 5
-47z"/>
<path d="M6393 4173 c11 -46 11 -46 -26 -79 l-38 -32 52 -7 c48 -7 52 -10 67
-46 8 -21 18 -39 22 -39 4 0 15 18 23 39 15 36 19 39 67 46 l51 7 -38 32 c-37
33 -37 33 -26 79 5 26 7 47 4 47 -3 0 -21 -9 -39 -20 -40 -25 -50 -25 -82 0
-41 32 -49 26 -37 -27z"/>
<path d="M4690 3983 c0 -5 7 -33 15 -63 8 -30 15 -57 15 -60 0 -3 -22 -23 -50
-45 -27 -22 -50 -43 -50 -47 0 -5 30 -8 66 -8 l65 0 20 -47 c11 -27 24 -57 28
-68 7 -17 13 -9 39 48 l31 67 65 0 c36 0 66 3 66 8 -1 4 -23 25 -50 46 -28 22
-50 44 -50 50 0 6 7 36 15 66 8 30 12 56 10 59 -3 2 -29 -12 -60 -32 l-55 -37
-54 35 c-57 36 -66 40 -66 28z"/>
<path d="M5925 3973 c3 -10 11 -40 18 -67 l11 -49 -54 -48 -55 -48 71 -1 72 0
22 -60 c12 -33 26 -62 30 -65 4 -2 18 24 31 58 l25 62 67 3 c69 3 81 11 49 34
-10 7 -33 25 -51 40 l-32 27 16 62 c9 34 14 63 12 66 -3 2 -30 -12 -61 -32
l-56 -36 -52 36 c-59 39 -73 43 -63 18z"/>
<path d="M5270 3936 c0 -4 10 -45 21 -91 l21 -85 -23 -20 c-13 -11 -46 -37
-72 -57 l-49 -38 95 -9 95 -9 32 -85 c36 -95 35 -95 77 15 l28 73 45 1 c25 0
67 4 94 7 l49 7 -55 43 c-95 73 -92 67 -68 162 12 45 20 83 18 85 -2 2 -34
-16 -72 -41 -38 -24 -74 -44 -79 -44 -9 0 -70 35 -134 78 -13 8 -23 11 -23 8z"/>
<path d="M3610 3691 c-111 -23 -246 -138 -303 -258 -28 -59 -32 -79 -32 -148
0 -102 31 -173 108 -248 206 -201 477 -134 624 154 23 46 27 66 28 139 0 73
-4 93 -27 140 -74 150 -256 251 -398 221z m177 -167 c24 -14 57 -44 73 -66 25
-34 30 -51 30 -97 0 -71 -25 -126 -86 -191 -57 -61 -96 -86 -153 -99 -123 -27
-245 88 -227 215 8 61 35 110 95 172 89 93 183 116 268 66z"/>
<path d="M7076 3641 c-27 -27 -47 -53 -45 -58 2 -5 123 -121 268 -257 l264
-248 41 43 c23 24 104 111 180 192 l139 148 -44 46 -44 45 -131 -137 -131
-137 -89 84 c-266 252 -348 328 -354 328 -3 0 -27 -22 -54 -49z"/>
<path d="M6697 3369 c-50 -30 -66 -45 -63 -57 3 -9 21 -105 41 -212 44 -239
94 -507 100 -537 5 -22 7 -21 70 19 73 45 73 47 50 146 -8 35 -13 67 -10 72 8
12 232 150 245 150 6 0 37 -19 68 -43 31 -24 62 -47 69 -50 11 -7 144 69 142
82 0 6 -622 463 -637 468 -4 2 -38 -15 -75 -38z m216 -244 l108 -84 -40 -26
c-23 -14 -59 -37 -82 -51 -22 -14 -42 -24 -44 -22 -7 7 -61 268 -56 268 3 0
55 -38 114 -85z"/>
<path d="M4206 3331 c-5 -8 -229 -491 -282 -609 l-24 -52 65 -32 c41 -20 68
-29 74 -23 5 6 35 66 66 135 31 69 60 128 64 132 4 4 65 -19 136 -52 71 -33
134 -60 140 -60 17 0 61 98 49 110 -5 5 -65 35 -134 66 -69 31 -127 58 -129
60 -6 6 61 154 70 154 5 0 77 -31 160 -70 83 -38 154 -70 158 -70 9 0 51 86
51 104 0 7 -21 23 -47 34 -27 11 -82 36 -123 55 -307 143 -285 134 -294 118z"/>
<path d="M6280 3166 c-34 -14 -54 -28 -53 -37 4 -19 251 -671 258 -677 7 -8
140 44 138 54 -1 5 -59 161 -129 347 -95 251 -132 337 -143 336 -9 0 -41 -11
-71 -23z"/>
<path d="M4661 2750 c-40 -199 -71 -363 -68 -366 10 -11 132 -33 138 -26 4 4
20 71 37 150 16 79 32 145 34 147 2 2 66 -9 142 -26 77 -16 144 -29 150 -29
13 0 37 111 27 121 -3 3 -70 19 -148 34 -131 25 -143 30 -143 49 1 27 27 136
34 144 4 3 83 -10 176 -30 l170 -35 9 36 c18 71 21 91 16 91 -3 0 -113 23
-244 50 -131 28 -243 50 -247 50 -5 0 -42 -162 -83 -360z"/>
<path d="M5822 3055 c-69 -19 -86 -29 -139 -78 -70 -65 -96 -124 -101 -236 -9
-197 62 -347 197 -413 39 -19 62 -23 146 -23 89 0 106 3 157 28 90 44 136 109
162 228 7 30 1 33 -95 44 l-56 7 -6 -43 c-6 -49 -30 -84 -78 -117 -45 -31
-129 -28 -178 8 -88 62 -131 300 -71 397 57 94 192 106 263 23 l34 -40 66 27
c37 14 67 30 67 34 0 4 -15 29 -32 55 -64 94 -204 136 -336 99z"/>
<path d="M5306 2943 c-3 -43 -8 -212 -12 -375 l-6 -298 75 0 75 0 6 258 c3
141 8 307 11 368 l5 111 -46 7 c-104 14 -101 16 -108 -71z"/>
</g>
</svg>
